<?xml version="1.0" encoding="UTF-8" standalone="no"?>
<!-- Created with Inkscape (http://www.inkscape.org/) -->

<svg
   xmlns:dc="http://purl.org/dc/elements/1.1/"
   xmlns:cc="http://creativecommons.org/ns#"
   xmlns:rdf="http://www.w3.org/1999/02/22-rdf-syntax-ns#"
   xmlns:svg="http://www.w3.org/2000/svg"
   xmlns="http://www.w3.org/2000/svg"
   xmlns:sodipodi="http://sodipodi.sourceforge.net/DTD/sodipodi-0.dtd"
   xmlns:inkscape="http://www.inkscape.org/namespaces/inkscape"
   width="298"
   height="170.58"
   id="svg5068"
   version="1.1"
   inkscape:version="0.48.1 "
   sodipodi:docname="New document 4">
  <defs
     id="defs5070">
    <clipPath
       clipPathUnits="userSpaceOnUse"
       id="clipPath440">
      <path
         inkscape:connector-curvature="0"
         d="m 672.217,121.504 c 0,3.247 2.633,5.88 5.88,5.88 3.247,0 5.879,-2.633 5.879,-5.88 0,-3.247 -2.632,-5.88 -5.879,-5.88 -3.247,0 -5.88,2.633 -5.88,5.88"
         id="path442" />
    </clipPath>
    <clipPath
       clipPathUnits="userSpaceOnUse"
       id="clipPath476">
      <path
         inkscape:connector-curvature="0"
         d="m 672.217,121.504 c 0,3.247 2.633,5.88 5.88,5.88 3.247,0 5.879,-2.633 5.879,-5.88 0,-3.247 -2.632,-5.88 -5.879,-5.88 -3.247,0 -5.88,2.633 -5.88,5.88"
         id="path478" />
    </clipPath>
  </defs>
  <sodipodi:namedview
     id="base"
     pagecolor="#ffffff"
     bordercolor="#666666"
     borderopacity="1.0"
     inkscape:pageopacity="0.0"
     inkscape:pageshadow="2"
     inkscape:zoom="1.979899"
     inkscape:cx="110.2469"
     inkscape:cy="73.892021"
     inkscape:document-units="px"
     inkscape:current-layer="layer1"
     showgrid="false"
     fit-margin-top="0"
     fit-margin-left="0"
     fit-margin-right="0"
     fit-margin-bottom="0"
     inkscape:window-width="1280"
     inkscape:window-height="720"
     inkscape:window-x="-8"
     inkscape:window-y="-8"
     inkscape:window-maximized="1" />
  <metadata
     id="metadata5073">
    <rdf:RDF>
      <cc:Work
         rdf:about="">
        <dc:format>image/svg+xml</dc:format>
        <dc:type
           rdf:resource="http://purl.org/dc/dcmitype/StillImage" />
        <dc:title></dc:title>
      </cc:Work>
    </rdf:RDF>
  </metadata>
  <g
     inkscape:label="Layer 1"
     inkscape:groupmode="layer"
     id="layer1"
     transform="translate(-266.90794,-368.66357)">
    <g
       transform="matrix(2.7333781,0,0,-2.7333781,-1533.3153,735.61399)"
       id="g4987">
      <path
         inkscape:connector-curvature="0"
         d="m 670.86,113.909 0,-1.011 c 2.585,0.074 3.915,-0.689 3.994,-2.29 l 0,-25.821 c 0.052,-2.785 -3.582,-3.086 -4.156,-1.529 -0.111,0.906 0.537,1.213 0.792,2.187 0.521,1.996 -0.301,4.537 -3.035,4.07 -4.782,-1.174 -2.928,-8.289 3.878,-8.424 5.499,-0.012 9.268,2.795 9.383,7.884 l 0,21.633 c 0.386,1.546 1.625,2.309 3.717,2.29 l 0.092,1.011 -14.665,0"
         style="fill:#1d4692;fill-opacity:1;fill-rule:nonzero;stroke:none"
         id="path426" />
      <path
         inkscape:connector-curvature="0"
         d="m 703.984,107.489 0,-0.778 c 0.942,-0.045 1.709,-0.481 2.301,-1.308 l 4.425,-7.885 0,-6.094 c -0.09,-0.915 -0.97,-1.448 -2.64,-1.597 l 0,-0.574 7.155,0 0,0.574 c -1.439,0.183 -2.246,0.715 -2.421,1.597 l 0,6.094 4.273,8.097 c 0.748,0.755 1.468,1.12 2.163,1.096 l 0,0.778 -4.319,0 0,-0.778 c 1.114,-0.046 1.538,-0.352 1.273,-0.919 l -3.577,-6.869 -3.858,6.763 c -0.322,0.53 0.071,0.872 0.992,1.025 l 0,0.778 -5.767,0"
         style="fill:#1d4692;fill-opacity:1;fill-rule:nonzero;stroke:none"
         id="path428" />
      <path
         inkscape:connector-curvature="0"
         d="m 693.436,104.549 -3.639,-8.737 7.144,0 -3.505,8.737 z m -0.031,2.94 -6.584,-16.292 c -0.502,-0.751 -1.079,-1.364 -1.733,-1.358 l 0,-0.586 4.284,0 0,0.586 c -1.158,-0.029 -1.631,0.578 -1.42,1.337 l 1.381,3.894 7.962,0 1.629,-3.832 c 0.193,-0.654 -0.2,-1.511 -1.382,-1.399 l 0,-0.586 5.237,0 0,0.586 c -0.653,0.052 -1.16,0.67 -1.52,1.373 l -6.686,16.277 c -0.289,0.803 -0.847,0.718 -1.168,0"
         style="fill:#1d4692;fill-opacity:1;fill-rule:evenodd;stroke:none"
         id="path430" />
      <path
         inkscape:connector-curvature="0"
         d="m 738.617,107.488 0,-0.813 c 1.677,-0.071 2.251,-0.572 2.243,-1.625 l 0,-12.778 c -0.079,-1.515 -0.858,-2.27 -2.336,-2.265 l 0,-0.754 12.059,0 0.185,3.715 -0.555,0 c -0.187,-1.158 -0.557,-2.05 -1.11,-2.675 l -4.642,0 c -0.75,0.224 -1.217,0.684 -1.402,1.38 l 0,6.77 4.178,0 c 0.832,-0.021 1.269,-0.674 1.31,-1.959 l 0.843,0 0,4.672 -0.843,0 c -0.102,-1.073 -0.415,-1.668 -0.939,-1.788 l -4.549,0 0,7.13 4.919,0 c 1.117,-0.028 1.741,-0.808 1.873,-2.339 l 0.741,0 -0.178,3.329 -11.797,0"
         style="fill:#1d4692;fill-opacity:1;fill-rule:nonzero;stroke:none"
         id="path432" />
      <path
         inkscape:connector-curvature="0"
         d="m 755,107.488 0,-0.813 c 1.677,-0.071 2.251,-0.572 2.243,-1.625 l 0,-12.778 c -0.079,-1.515 -0.858,-2.27 -2.336,-2.265 l 0,-0.754 12.059,0 0.185,3.715 -0.555,0 c -0.186,-1.158 -0.557,-2.05 -1.11,-2.675 l -4.642,0 c -0.75,0.224 -1.217,0.684 -1.402,1.38 l 0,6.77 4.178,0 c 0.832,-0.021 1.269,-0.674 1.31,-1.959 l 0.843,0 0,4.672 -0.843,0 c -0.102,-1.073 -0.415,-1.668 -0.939,-1.788 l -4.549,0 0,7.13 4.919,0 c 1.117,-0.028 1.741,-0.808 1.873,-2.339 l 0.741,0 -0.177,3.329 -11.798,0"
         style="fill:#1d4692;fill-opacity:1;fill-rule:nonzero;stroke:none"
         id="path434" />
      <g
         id="g436">
        <g
           id="g438"
           clip-path="url(#clipPath440)">
          <path
             inkscape:connector-curvature="0"
             d="m 685.778,123.51 c 0,5.086 -4.127,9.213 -9.213,9.213 -5.085,0 -9.213,-4.127 -9.213,-9.213 0,-5.086 4.128,-9.213 9.213,-9.213 5.086,0 9.213,4.127 9.213,9.213 m -3.834,-0.01 c 0,-2.969 -2.41,-5.379 -5.379,-5.379 -2.97,0 -5.38,2.41 -5.38,5.379 0,2.97 2.41,5.38 5.38,5.38 2.969,0 5.379,-2.41 5.379,-5.38"
             style="fill:#ea4f00;fill-opacity:1;fill-rule:nonzero;stroke:none"
             id="path444" />
          <path
             inkscape:connector-curvature="0"
             d="m 682.717,123.51 c 0,3.396 -2.756,6.152 -6.152,6.152 -3.397,0 -6.153,-2.756 -6.153,-6.152 0,-3.396 2.756,-6.152 6.153,-6.152 3.396,0 6.152,2.756 6.152,6.152 m -0.547,-0.01 c 0,-3.095 -2.511,-5.606 -5.606,-5.606 -3.095,0 -5.606,2.511 -5.606,5.606 0,3.095 2.511,5.606 5.606,5.606 3.095,0 5.606,-2.511 5.606,-5.606"
             style="fill:#ea4f00;fill-opacity:1;fill-rule:nonzero;stroke:none"
             id="path446" />
          <path
             inkscape:connector-curvature="0"
             d="m 682.171,123.51 c 0,3.095 -2.512,5.606 -5.606,5.606 -3.095,0 -5.607,-2.511 -5.607,-5.606 0,-3.095 2.512,-5.606 5.607,-5.606 3.094,0 5.606,2.511 5.606,5.606 m -0.546,-0.01 -10e-4,0 c 0,-2.793 -2.267,-5.06 -5.06,-5.06 -2.793,0 -5.06,2.267 -5.06,5.06 0,2.793 2.267,5.06 5.06,5.06 2.793,0 5.06,-2.267 5.06,-5.06"
             style="fill:#ea5400;fill-opacity:1;fill-rule:nonzero;stroke:none"
             id="path448" />
          <path
             inkscape:connector-curvature="0"
             d="m 681.625,123.495 c 0,2.793 -2.267,5.06 -5.06,5.06 -2.793,0 -5.06,-2.267 -5.06,-5.06 0,-2.793 2.267,-5.06 5.06,-5.06 2.793,0 5.06,2.267 5.06,5.06 m -0.547,0.005 c 0,-2.492 -2.022,-4.514 -4.514,-4.514 -2.491,0 -4.514,2.022 -4.514,4.514 0,2.492 2.023,4.514 4.514,4.514 2.492,0 4.514,-2.022 4.514,-4.514"
             style="fill:#eb5a00;fill-opacity:1;fill-rule:nonzero;stroke:none"
             id="path450" />
          <path
             inkscape:connector-curvature="0"
             d="m 681.079,123.495 c 0,2.492 -2.022,4.514 -4.514,4.514 -2.492,0 -4.514,-2.022 -4.514,-4.514 0,-2.492 2.022,-4.514 4.514,-4.514 2.492,0 4.514,2.022 4.514,4.514 m -0.546,0.005 -10e-4,0 c 0,-2.19 -1.777,-3.968 -3.967,-3.968 -2.191,0 -3.968,1.778 -3.968,3.968 0,2.19 1.777,3.968 3.968,3.968 2.19,0 3.967,-1.778 3.967,-3.968"
             style="fill:#eb5f00;fill-opacity:1;fill-rule:nonzero;stroke:none"
             id="path452" />
          <path
             inkscape:connector-curvature="0"
             d="m 680.533,123.495 c 0,2.19 -1.778,3.968 -3.968,3.968 -2.19,0 -3.968,-1.778 -3.968,-3.968 0,-2.19 1.778,-3.968 3.968,-3.968 2.19,0 3.968,1.778 3.968,3.968 m -0.546,0.005 -10e-4,0 c 0,-1.889 -1.533,-3.422 -3.421,-3.422 -1.889,0 -3.422,1.533 -3.422,3.422 0,1.889 1.533,3.422 3.422,3.422 1.888,0 3.421,-1.533 3.421,-3.422"
             style="fill:#ec6400;fill-opacity:1;fill-rule:nonzero;stroke:none"
             id="path454" />
          <path
             inkscape:connector-curvature="0"
             d="m 681.06,123.495 c 0,2.481 -2.014,4.494 -4.495,4.494 -2.48,0 -4.494,-2.013 -4.494,-4.494 0,-2.481 2.014,-4.494 4.494,-4.494 2.481,0 4.495,2.013 4.495,4.494 m -0.6,0.005 c 0,-2.15 -1.745,-3.895 -3.895,-3.895 -2.15,0 -3.895,1.745 -3.895,3.895 0,2.15 1.745,3.895 3.895,3.895 2.15,0 3.895,-1.745 3.895,-3.895"
             style="fill:#ec6400;fill-opacity:1;fill-rule:nonzero;stroke:none"
             id="path456" />
          <path
             inkscape:connector-curvature="0"
             d="m 680.46,123.51 c 0,2.15 -1.745,3.895 -3.895,3.895 -2.15,0 -3.895,-1.745 -3.895,-3.895 0,-2.15 1.745,-3.895 3.895,-3.895 2.15,0 3.895,1.745 3.895,3.895 m -0.599,-0.01 -10e-4,0 c 0,-1.819 -1.476,-3.296 -3.296,-3.296 -1.819,0 -3.296,1.477 -3.296,3.296 0,1.82 1.477,3.296 3.296,3.296 1.82,0 3.296,-1.476 3.296,-3.296"
             style="fill:#ee770a;fill-opacity:1;fill-rule:nonzero;stroke:none"
             id="path458" />
        </g>
      </g>
      <path
         inkscape:connector-curvature="0"
         d="m 679.861,123.51 c 0,1.819 -1.477,3.296 -3.296,3.296 -1.819,0 -3.296,-1.477 -3.296,-3.296 0,-1.819 1.477,-3.296 3.296,-3.296 1.819,0 3.296,1.477 3.296,3.296 m -0.599,-0.01 -10e-4,0 c 0,-1.488 -1.208,-2.697 -2.696,-2.697 -1.489,0 -2.697,1.209 -2.697,2.697 0,1.489 1.208,2.697 2.697,2.697 1.488,0 2.696,-1.208 2.696,-2.697"
         style="fill:#f08b27;fill-opacity:1;fill-rule:nonzero;stroke:none"
         id="path460" />
      <path
         inkscape:connector-curvature="0"
         d="m 679.262,123.51 c 0,1.489 -1.208,2.697 -2.697,2.697 -1.488,0 -2.696,-1.208 -2.696,-2.697 0,-1.489 1.208,-2.697 2.696,-2.697 1.489,0 2.697,1.208 2.697,2.697 m -0.6,-0.01 c 0,-1.158 -0.939,-2.097 -2.097,-2.097 -1.158,0 -2.097,0.939 -2.097,2.097 0,1.158 0.939,2.098 2.097,2.098 1.158,0 2.097,-0.94 2.097,-2.098"
         style="fill:#f39f3d;fill-opacity:1;fill-rule:nonzero;stroke:none"
         id="path462" />
      <path
         inkscape:connector-curvature="0"
         d="m 678.662,123.51 c 0,1.158 -0.94,2.097 -2.097,2.097 -1.158,0 -2.098,-0.939 -2.098,-2.097 0,-1.158 0.94,-2.097 2.098,-2.097 1.157,0 2.097,0.939 2.097,2.097 m -0.6,-0.01 c 0,-0.827 -0.671,-1.498 -1.498,-1.498 -0.827,0 -1.498,0.671 -1.498,1.498 0,0.827 0.671,1.498 1.498,1.498 0.827,0 1.498,-0.671 1.498,-1.498"
         style="fill:#f7b250;fill-opacity:1;fill-rule:nonzero;stroke:none"
         id="path464" />
      <path
         inkscape:connector-curvature="0"
         d="m 678.063,123.51 c 0,0.827 -0.671,1.498 -1.498,1.498 -0.827,0 -1.498,-0.671 -1.498,-1.498 0,-0.827 0.671,-1.498 1.498,-1.498 0.827,0 1.498,0.671 1.498,1.498 m -0.6,-0.01 c 0,-0.496 -0.402,-0.899 -0.899,-0.899 -0.496,0 -0.898,0.403 -0.898,0.899 0,0.496 0.402,0.899 0.898,0.899 0.497,0 0.899,-0.403 0.899,-0.899"
         style="fill:#f9c463;fill-opacity:1;fill-rule:nonzero;stroke:none"
         id="path466" />
      <path
         inkscape:connector-curvature="0"
         d="m 677.464,123.51 c 0,0.496 -0.403,0.899 -0.899,0.899 -0.496,0 -0.899,-0.403 -0.899,-0.899 0,-0.496 0.403,-0.899 0.899,-0.899 0.496,0 0.899,0.403 0.899,0.899 m -0.599,-0.01 -10e-4,0 c 0,-0.165 -0.134,-0.299 -0.299,-0.299 -0.166,0 -0.3,0.134 -0.3,0.299 0,0.166 0.134,0.3 0.3,0.3 0.165,0 0.299,-0.134 0.299,-0.3"
         style="fill:#fdd679;fill-opacity:1;fill-rule:nonzero;stroke:none"
         id="path468" />
      <path
         inkscape:connector-curvature="0"
         d="m 676.85,123.51 c 0,0.165 -0.134,0.3 -0.3,0.3 -0.165,0 -0.299,-0.135 -0.299,-0.3 0,-0.165 0.134,-0.3 0.299,-0.3 0.166,0 0.3,0.135 0.3,0.3"
         style="fill:#ffe88f;fill-opacity:1;fill-rule:nonzero;stroke:none"
         id="path470" />
      <g
         style="fill:#1d4692;fill-opacity:1"
         id="g472">
        <g
           style="fill:#1d4692;fill-opacity:1"
           id="g474"
           clip-path="url(#clipPath476)">
          <path
             inkscape:connector-curvature="0"
             d="m 681.758,118.908 0.218,-0.13 0.174,-0.13 0.043,-0.261 -0.174,-0.043 -0.217,-0.131 0.043,0.348 -0.087,0.347 z m -6.473,0.739 0.043,0.391 -0.131,0.217 -0.086,0.174 -0.174,-0.087 0,-0.304 0.044,-0.348 0.304,-0.043 z m -0.738,1.737 0.13,-0.304 0.043,-0.217 0.131,-0.304 0.13,0.217 0,0.348 -0.044,0.217 -0.39,0.043 z m 1.651,-0.086 0.043,-0.305 0.087,-0.347 0.217,-0.174 0.261,0 0.043,0.218 0.087,0.216 -0.217,0.044 -0.174,0.217 -0.347,0.131 z m -3.955,1.868 0.392,0.087 0.174,0.304 -0.043,0.261 0.477,0 0,-0.565 -0.131,-0.304 0,-0.174 0.088,-0.391 0.303,0 0.088,0.13 0.173,0.131 0.217,0 0.044,0.216 0.304,0.305 0.304,0.174 0.652,0 0.174,-0.044 0.173,-0.173 0.218,0 0.173,0.086 0,0.217 0.087,0.218 0.044,0.174 0.174,0.13 0.261,0.218 0.26,0.172 0.26,0.088 0.174,0.13 0.174,0.174 0.044,0.217 c 0.173,0.087 0.304,-0.043 0.304,-0.043 0.13,0.173 0.087,0.304 0.087,0.304 l -0.218,0.217 -0.26,0.218 -0.131,0.304 0,0.26 -0.13,0.304 0.348,0.043 0.26,0 c 0.174,-0.086 0.261,-0.217 0.261,-0.217 0.174,0.044 0.218,0.217 0.218,0.217 l 0.26,0 0.218,0.131 0.086,0.173 0.217,0.174 0.695,0 c 0.13,-0.174 0.305,-0.304 0.305,-0.304 l 0.216,-0.087 c 0.175,-0.043 0.262,-0.217 0.262,-0.217 0.13,-0.087 0.304,-0.087 0.304,-0.087 l 0.26,0.044 0.174,0.043 0.391,0 0.26,-0.217 -0.13,-0.304 0,-0.391 0.044,-0.261 0.304,-0.217 0.217,-0.087 0.261,-0.261 0,-0.174 0.173,-0.346 0.218,-0.262 -0.218,-0.217 0.174,-0.261 0.044,-0.303 -0.174,-0.131 -0.044,-0.391 0.218,-0.348 c 0,0 0.304,-0.869 -0.261,-1.26 0,0 -0.608,-0.39 -0.303,-0.825 0,0 0.52,-0.435 0.26,-0.782 0,0 -0.391,-0.217 -0.869,0.043 0,0 -0.478,0.218 -0.652,0.566 0,0 -0.174,0.608 -0.651,0.217 0,0 -0.783,-0.739 -0.869,-1.087 l -0.044,-0.651 -0.174,-0.174 -0.26,0.174 -0.174,0.26 -0.044,0.304 0,0.261 -0.044,0.348 -0.216,0.348 -0.304,0.173 -0.305,0.131 -0.216,0.173 -0.348,0.044 -0.175,-0.044 -0.086,-0.304 -0.174,-0.261 -0.086,-0.26 -0.391,-0.131 -0.479,-0.087 -0.347,0 -0.304,-0.086 0,-0.305 0.173,-0.086 0.174,0 0.261,0.086 c 0.087,-0.173 0.087,-0.39 0.087,-0.39 l -0.131,-0.218 -0.173,-0.174 -0.13,-0.217 -0.305,-0.087 -0.261,0 -0.173,-0.26 0.043,-0.305 c 0.13,-0.26 0.261,-0.346 0.261,-0.346 l 0,-0.262 -0.174,-0.086 c 0,0 0.043,-0.174 -0.13,-0.174 -0.174,0 -0.652,0.13 -0.652,0.13 0,0 -0.651,0.044 -0.783,0.478 -0.13,0.434 -0.52,0.912 -0.564,1.086 -0.043,0.174 -0.087,0.478 -0.087,0.478 l 0,0.391 -0.086,0.347 -0.218,0.522 -0.086,0.217 -0.305,0.218 -0.13,0.39 0,0.261 0.173,0.261 0.305,0 0.043,0.217 -0.086,0.261 -0.174,0.087 -0.174,0.304 -0.044,0.434 0.13,0.565"
             style="fill:#1d4692;fill-opacity:1;fill-rule:nonzero;stroke:none"
             id="path480" />
        </g>
      </g>
      <path
         inkscape:connector-curvature="0"
         d="m 684.194,126.949 c 4.786,3.252 9.039,5.82 10.533,4.919 1.858,-2.396 -8.955,-14.093 -14.601,-20.371 -5.418,-6.025 -17.501,-16.993 -18.862,-16.643 -0.814,0.185 0.969,3.965 4.031,8.211 -3.076,-3.696 -6.805,-8.729 -5.773,-9.802 1.224,-1.145 12.394,8.248 21.323,17.796 10.673,11.459 17.182,20.398 15.74,22.407 -1.34,1.236 -7.919,-2.833 -12.391,-6.517"
         style="fill:#f18e00;fill-opacity:1;fill-rule:nonzero;stroke:none"
         id="path482" />
      <path
         inkscape:connector-curvature="0"
         d="m 726.773,106.71 0,-9.272 c 3.884,-0.029 5.806,1.752 5.768,5.342 0,3.188 -1.802,4.036 -5.768,3.93 z m -4.687,0.777 0,-0.813 c 1.544,-0.003 2.318,-0.333 2.319,-0.989 l 0,-14.66 c -0.381,-0.623 -1.235,-0.998 -2.319,-1.125 l 0,-0.648 7.026,0 0,0.648 c -1.366,0.14 -2.192,0.515 -2.477,1.125 l 0.093,5.811 c 5.191,-0.189 8.187,1.909 8.293,5.839 0,3.081 -1.856,4.858 -5.502,4.812 l -7.433,0"
         style="fill:#1d4692;fill-opacity:1;fill-rule:evenodd;stroke:none"
         id="path484" />
      <path
         inkscape:connector-curvature="0"
         d="m 679.091,77.656 c 26.274,6.956 57.146,8.027 88.057,0 -12.14,5.711 -27.648,8.262 -42.598,8.378 -12.276,0.056 -29.702,-1.762 -45.459,-8.378"
         style="fill:#f18e00;fill-opacity:1;fill-rule:nonzero;stroke:none"
         id="path486" />
      <path
         inkscape:connector-curvature="0"
         d="m 701.258,78.636 c 0.348,-0.099 0.547,-0.15 0.599,-0.15 0.133,0 0.227,0.026 0.281,0.077 0.058,0.052 0.106,0.126 0.146,0.223 l 0.204,0 0.072,-1.956 -0.213,0 c -0.191,0.451 -0.388,0.786 -0.59,1.007 -0.367,0.387 -0.843,0.582 -1.43,0.582 -0.596,0 -1.121,-0.228 -1.575,-0.681 -0.451,-0.452 -0.676,-1.195 -0.676,-2.233 0,-0.857 0.225,-1.525 0.676,-2.007 0.451,-0.48 1.008,-0.721 1.671,-0.721 0.111,0 0.243,0.01 0.394,0.032 0.151,0.021 0.296,0.054 0.432,0.1 0.22,0.072 0.358,0.134 0.413,0.185 0.053,0.055 0.082,0.134 0.082,0.237 l 0,1.484 c 0,0.357 -0.052,0.58 -0.155,0.667 -0.099,0.088 -0.321,0.142 -0.663,0.163 l 0,0.173 2.369,0 0,-0.173 c -0.23,-0.015 -0.382,-0.053 -0.458,-0.113 -0.127,-0.097 -0.191,-0.297 -0.191,-0.599 l 0,-1.829 c 0,-0.109 -0.268,-0.254 -0.803,-0.436 -0.533,-0.181 -1.045,-0.272 -1.538,-0.272 -0.908,0 -1.674,0.264 -2.297,0.794 -0.687,0.584 -1.031,1.367 -1.031,2.351 0,0.865 0.274,1.606 0.823,2.224 0.601,0.681 1.4,1.021 2.396,1.021 0.36,0 0.713,-0.05 1.062,-0.15"
         style="fill:#1d4692;fill-opacity:1;fill-rule:nonzero;stroke:none"
         id="path488" />
      <path
         inkscape:connector-curvature="0"
         d="m 712.117,75.918 c 0.493,0.203 0.74,0.584 0.74,1.144 0,0.538 -0.222,0.906 -0.663,1.102 -0.236,0.106 -0.55,0.16 -0.939,0.16 -0.264,0 -0.426,-0.021 -0.486,-0.059 -0.057,-0.037 -0.086,-0.125 -0.086,-0.264 l 0,-2.292 c 0.668,0.024 1.146,0.094 1.434,0.209 z m -3.177,-3.223 c 0.357,0.034 0.579,0.103 0.667,0.209 0.088,0.106 0.132,0.353 0.132,0.74 l 0,4.026 c 0,0.327 -0.05,0.54 -0.15,0.64 -0.097,0.103 -0.314,0.168 -0.649,0.195 l 0,0.173 2.573,0 c 0.536,0 0.982,-0.069 1.339,-0.205 0.678,-0.257 1.016,-0.731 1.016,-1.421 0,-0.462 -0.151,-0.818 -0.454,-1.066 -0.299,-0.248 -0.707,-0.412 -1.225,-0.49 l 1.916,-2.356 c 0.118,-0.145 0.236,-0.251 0.354,-0.318 0.118,-0.066 0.269,-0.108 0.454,-0.127 l 0,-0.167 -1.499,0 -2.214,2.859 -0.517,-0.023 0,-1.829 c 0,-0.345 0.051,-0.564 0.154,-0.658 0.106,-0.091 0.334,-0.151 0.685,-0.182 l 0,-0.167 -2.582,0 0,0.167"
         style="fill:#1d4692;fill-opacity:1;fill-rule:evenodd;stroke:none"
         id="path490" />
      <path
         inkscape:connector-curvature="0"
         d="m 722.309,73.431 c 0.384,-0.466 0.857,-0.698 1.416,-0.698 0.548,0 1.015,0.226 1.402,0.68 0.391,0.457 0.586,1.186 0.586,2.187 0,1.014 -0.197,1.746 -0.59,2.197 -0.393,0.451 -0.859,0.676 -1.398,0.676 -0.556,0 -1.029,-0.235 -1.416,-0.703 -0.384,-0.466 -0.577,-1.189 -0.577,-2.17 0,-0.977 0.193,-1.7 0.577,-2.169 z m -0.695,4.557 c 0.572,0.547 1.276,0.821 2.111,0.821 0.839,0 1.543,-0.275 2.116,-0.826 0.619,-0.596 0.93,-1.39 0.93,-2.383 0,-1.007 -0.321,-1.809 -0.962,-2.405 -0.576,-0.532 -1.27,-0.799 -2.084,-0.799 -0.871,0 -1.594,0.295 -2.17,0.885 -0.584,0.602 -0.875,1.375 -0.875,2.319 0,0.993 0.311,1.789 0.934,2.388"
         style="fill:#1d4692;fill-opacity:1;fill-rule:evenodd;stroke:none"
         id="path492" />
      <path
         inkscape:connector-curvature="0"
         d="m 735.247,78.677 0,-0.173 c -0.358,-0.024 -0.59,-0.084 -0.696,-0.181 -0.105,-0.094 -0.158,-0.312 -0.158,-0.654 l 0,-2.973 c 0,-0.487 0.067,-0.866 0.2,-1.139 0.248,-0.496 0.719,-0.744 1.411,-0.744 0.76,0 1.269,0.254 1.529,0.763 0.146,0.284 0.219,0.722 0.219,1.316 l 0,2.419 c 0,0.505 -0.061,0.821 -0.182,0.948 -0.121,0.13 -0.35,0.212 -0.69,0.245 l 0,0.173 2.152,0 0,-0.173 c -0.36,-0.039 -0.597,-0.127 -0.708,-0.262 -0.109,-0.134 -0.164,-0.444 -0.164,-0.931 l 0,-2.419 c 0,-0.642 -0.099,-1.143 -0.295,-1.503 -0.363,-0.662 -1.053,-0.993 -2.07,-0.993 -1.004,0 -1.688,0.326 -2.051,0.979 -0.197,0.352 -0.295,0.815 -0.295,1.39 l 0,2.904 c 0,0.339 -0.053,0.555 -0.159,0.649 -0.103,0.097 -0.329,0.159 -0.681,0.186 l 0,0.173 2.638,0"
         style="fill:#1d4692;fill-opacity:1;fill-rule:nonzero;stroke:none"
         id="path494" />
      <path
         inkscape:connector-curvature="0"
         d="m 747.848,78.16 c -0.263,0.114 -0.596,0.172 -0.998,0.172 -0.191,0 -0.309,-0.019 -0.354,-0.059 -0.042,-0.036 -0.064,-0.119 -0.064,-0.249 l 0,-2.424 c 0.166,-0.015 0.276,-0.024 0.328,-0.027 0.05,-0.003 0.101,-0.004 0.149,-0.004 0.426,0 0.763,0.06 1.007,0.181 0.446,0.221 0.668,0.634 0.668,1.239 0,0.569 -0.246,0.959 -0.736,1.171 z m -3.136,-5.465 c 0.354,0.034 0.575,0.103 0.663,0.209 0.087,0.11 0.131,0.356 0.131,0.74 l 0,4.026 c 0,0.323 -0.05,0.537 -0.15,0.64 -0.096,0.103 -0.311,0.168 -0.644,0.195 l 0,0.173 2.451,0 c 0.787,0 1.389,-0.153 1.806,-0.459 0.417,-0.306 0.627,-0.708 0.627,-1.207 0,-0.633 -0.232,-1.091 -0.694,-1.376 -0.463,-0.284 -1.043,-0.426 -1.739,-0.426 -0.1,0 -0.228,0.001 -0.386,0.004 -0.154,0.006 -0.27,0.009 -0.345,0.009 l 0,-1.688 c 0,-0.351 0.054,-0.572 0.16,-0.662 0.109,-0.091 0.349,-0.15 0.721,-0.178 l 0,-0.168 -2.601,0 0,0.168"
         style="fill:#1d4692;fill-opacity:1;fill-rule:evenodd;stroke:none"
         id="path496" />
    </g>
  </g>
</svg>
